<svg width="18" height="16" viewBox="0 0 18 16" fill="none" xmlns="http://www.w3.org/2000/svg">
<path d="M16.612 1.41452C16.1722 0.966073 15.65 0.610337 15.0752 0.367629C14.5005 0.124922 13.8844 0 13.2623 0C12.6401 0 12.0241 0.124922 11.4493 0.367629C10.8746 0.610337 10.3524 0.966073 9.91255 1.41452L8.99977 2.34476L8.08699 1.41452C7.19858 0.509117 5.99364 0.0004693 4.73725 0.000469309C3.48085 0.000469319 2.27591 0.509117 1.38751 1.41452C0.499101 2.31992 9.36088e-09 3.5479 0 4.82833C-9.36088e-09 6.10875 0.499101 7.33674 1.38751 8.24214L2.30029 9.17238L8.99977 16L15.6992 9.17238L16.612 8.24214C17.0521 7.79391 17.4011 7.26171 17.6393 6.67596C17.8774 6.0902 18 5.46237 18 4.82833C18 4.19428 17.8774 3.56645 17.6393 2.9807C17.4011 2.39494 17.0521 1.86275 16.612 1.41452V1.41452Z" fill="#116DF7"/>
</svg>
