<svg width="248" height="23" viewBox="0 0 248 23" fill="none" xmlns="http://www.w3.org/2000/svg">
<path d="M123.686 8.34473C123.686 9.31999 123.521 10.1722 123.193 10.9014C122.865 11.626 122.4 12.1797 121.799 12.5625C121.197 12.9453 120.495 13.1367 119.693 13.1367C118.91 13.1367 118.215 12.9453 117.608 12.5625C117.002 12.1751 116.531 11.626 116.193 10.915C115.861 10.1995 115.69 9.3724 115.681 8.43359V7.71582C115.681 6.75879 115.847 5.91341 116.18 5.17969C116.512 4.44596 116.982 3.88542 117.588 3.49805C118.199 3.10612 118.896 2.91016 119.68 2.91016C120.477 2.91016 121.179 3.10384 121.785 3.49121C122.396 3.87402 122.865 4.43229 123.193 5.16602C123.521 5.89518 123.686 6.74512 123.686 7.71582V8.34473ZM122.38 7.70215C122.38 6.52181 122.143 5.61719 121.669 4.98828C121.195 4.35482 120.532 4.03809 119.68 4.03809C118.85 4.03809 118.196 4.35482 117.718 4.98828C117.244 5.61719 117 6.49219 116.986 7.61328V8.34473C116.986 9.48861 117.226 10.3887 117.704 11.0449C118.187 11.6966 118.85 12.0225 119.693 12.0225C120.541 12.0225 121.197 11.7148 121.662 11.0996C122.127 10.4798 122.366 9.59342 122.38 8.44043V7.70215ZM129.305 8.97363H126.967V13H125.647V3.04688H128.942C130.063 3.04688 130.925 3.30208 131.526 3.8125C132.132 4.32292 132.436 5.06576 132.436 6.04102C132.436 6.66081 132.267 7.20085 131.93 7.66113C131.597 8.12142 131.132 8.46549 130.535 8.69336L132.873 12.918V13H131.465L129.305 8.97363ZM126.967 7.90039H128.983C129.635 7.90039 130.152 7.73177 130.535 7.39453C130.923 7.05729 131.116 6.60612 131.116 6.04102C131.116 5.42578 130.932 4.9541 130.562 4.62598C130.198 4.29785 129.669 4.13151 128.977 4.12695H126.967V7.90039Z" fill="#9DA4A8"/>
<rect x="8" y="8" width="98" height="1" fill="#E7EAEC"/>
<rect x="144" y="8" width="98" height="1" fill="#E7EAEC"/>
</svg>
