<svg width="22" height="22" viewBox="0 0 22 22" fill="none" xmlns="http://www.w3.org/2000/svg">
<path fill-rule="evenodd" clip-rule="evenodd" d="M17.6801 14.6299C17.6262 14.3325 17.6626 14.0258 17.7846 13.7493C17.9008 13.4782 18.0938 13.247 18.3397 13.0841C18.5856 12.9213 18.8738 12.8339 19.1688 12.8327H19.2513C19.7375 12.8327 20.2038 12.6395 20.5477 12.2957C20.8915 11.9519 21.0846 11.4856 21.0846 10.9993C21.0846 10.5131 20.8915 10.0468 20.5477 9.70299C20.2038 9.35917 19.7375 9.16602 19.2513 9.16602H19.0955C18.8005 9.16484 18.5123 9.07744 18.2664 8.91457C18.0204 8.7517 17.8275 8.52047 17.7113 8.24935V8.17602C17.5893 7.89953 17.5529 7.59284 17.6068 7.29548C17.6607 6.99811 17.8025 6.72372 18.0138 6.50768L18.0688 6.45268C18.2393 6.28241 18.3745 6.08022 18.4667 5.85766C18.559 5.63509 18.6065 5.39653 18.6065 5.1556C18.6065 4.91467 18.559 4.6761 18.4667 4.45354C18.3745 4.23098 18.2393 4.02878 18.0688 3.85852C17.8985 3.68806 17.6963 3.55283 17.4738 3.46057C17.2512 3.36831 17.0126 3.32082 16.7717 3.32082C16.5308 3.32082 16.2922 3.36831 16.0697 3.46057C15.8471 3.55283 15.6449 3.68806 15.4746 3.85852L15.4196 3.91352C15.2036 4.12484 14.9292 4.2666 14.6318 4.32052C14.3345 4.37444 14.0278 4.33804 13.7513 4.21602C13.4802 4.09982 13.249 3.90687 13.0861 3.66094C12.9232 3.41501 12.8358 3.12682 12.8346 2.83185V2.74935C12.8346 2.26312 12.6415 1.7968 12.2977 1.45299C11.9538 1.10917 11.4875 0.916016 11.0013 0.916016C10.5151 0.916016 10.0488 1.10917 9.70494 1.45299C9.36112 1.7968 9.16797 2.26312 9.16797 2.74935V2.90518C9.16679 3.20015 9.07939 3.48834 8.91652 3.73428C8.75365 3.98021 8.52242 4.17315 8.2513 4.28935H8.17797C7.90149 4.41137 7.59479 4.44777 7.29743 4.39385C7.00007 4.33994 6.72567 4.19817 6.50963 3.98685L6.45464 3.93185C6.28437 3.76139 6.08217 3.62617 5.85961 3.53391C5.63705 3.44164 5.39848 3.39416 5.15755 3.39416C4.91662 3.39416 4.67806 3.44164 4.45549 3.53391C4.23293 3.62617 4.03074 3.76139 3.86047 3.93185C3.69001 4.10212 3.55479 4.30431 3.46253 4.52687C3.37026 4.74944 3.32278 4.988 3.32278 5.22893C3.32278 5.46986 3.37026 5.70843 3.46253 5.93099C3.55479 6.15355 3.69001 6.35575 3.86047 6.52602L3.91547 6.58102C4.12679 6.79705 4.26856 7.07145 4.32247 7.36881C4.37639 7.66617 4.33999 7.97287 4.21797 8.24935C4.11321 8.53419 3.92518 8.78093 3.67833 8.95748C3.43147 9.13404 3.13721 9.23225 2.8338 9.23935H2.7513C2.26507 9.23935 1.79876 9.4325 1.45494 9.77632C1.11112 10.1201 0.917969 10.5865 0.917969 11.0727C0.917969 11.5589 1.11112 12.0252 1.45494 12.369C1.79876 12.7129 2.26507 12.906 2.7513 12.906H2.90714C3.20211 12.9072 3.4903 12.9946 3.73623 13.1575C3.98216 13.3203 4.1751 13.5516 4.2913 13.8227C4.41332 14.0992 4.44972 14.4059 4.39581 14.7032C4.34189 15.0006 4.20013 15.275 3.9888 15.491L3.9338 15.546C3.76335 15.7163 3.62812 15.9185 3.53586 16.141C3.4436 16.3636 3.39611 16.6022 3.39611 16.8431C3.39611 17.084 3.4436 17.3226 3.53586 17.5452C3.62812 17.7677 3.76335 17.9699 3.9338 18.1402C4.10407 18.3106 4.30626 18.4459 4.52883 18.5381C4.75139 18.6304 4.98996 18.6779 5.23089 18.6779C5.47181 18.6779 5.71038 18.6304 5.93294 18.5381C6.15551 18.4459 6.3577 18.3106 6.52797 18.1402L6.58297 18.0852C6.79901 17.8739 7.0734 17.7321 7.37076 17.6782C7.66812 17.6243 7.97482 17.6607 8.2513 17.7827C8.53614 17.8874 8.78288 18.0755 8.95944 18.3223C9.13599 18.5692 9.2342 18.8634 9.2413 19.1668V19.2493C9.2413 19.7356 9.43446 20.2019 9.77827 20.5457C10.1221 20.8895 10.5884 21.0827 11.0746 21.0827C11.5609 21.0827 12.0272 20.8895 12.371 20.5457C12.7148 20.2019 12.908 19.7356 12.908 19.2493V19.0935C12.9091 18.7985 12.9965 18.5104 13.1594 18.2644C13.3223 18.0185 13.5535 17.8255 13.8246 17.7093C14.1011 17.5873 14.4078 17.5509 14.7052 17.6048C15.0025 17.6588 15.2769 17.8005 15.493 18.0118L15.548 18.0668C15.7182 18.2373 15.9204 18.3725 16.143 18.4648C16.3656 18.5571 16.6041 18.6045 16.8451 18.6045C17.086 18.6045 17.3245 18.5571 17.5471 18.4648C17.7697 18.3725 17.9719 18.2373 18.1421 18.0668C18.3126 17.8966 18.4478 17.6944 18.5401 17.4718C18.6323 17.2493 18.6798 17.0107 18.6798 16.7698C18.6798 16.5288 18.6323 16.2903 18.5401 16.0677C18.4478 15.8451 18.3126 15.6429 18.1421 15.4727L18.0871 15.4177C17.8758 15.2016 17.734 14.9272 17.6801 14.6299ZM9 10.9995C9 9.89494 9.89543 8.99951 11 8.99951C12.1046 8.99951 13 9.89494 13 10.9995C13 12.1041 12.1046 12.9995 11 12.9995C9.89543 12.9995 9 12.1041 9 10.9995ZM11 6.99951C8.79086 6.99951 7 8.79037 7 10.9995C7 13.2087 8.79086 14.9995 11 14.9995C13.2091 14.9995 15 13.2087 15 10.9995C15 8.79037 13.2091 6.99951 11 6.99951Z" fill="white"/>
</svg>
