<svg width="14" height="14" viewBox="0 0 14 14" fill="none" xmlns="http://www.w3.org/2000/svg">
<path d="M9.76289 11.09L9.74506 11.0404H9.69231H4.29744H4.2445L4.22677 11.0903L3.55618 12.9763C3.35395 13.5451 2.81563 13.925 2.21197 13.925C1.2042 13.925 0.514105 12.9085 0.886013 11.9718L5.10202 1.35404C5.40861 0.581907 6.15529 0.075 6.98607 0.075C7.81544 0.075 8.56116 0.580219 8.8687 1.35047L13.1087 11.9699C13.4827 12.9067 12.7928 13.925 11.7842 13.925C11.1824 13.925 10.6453 13.5472 10.4419 12.9808L9.76289 11.09ZM5.05751 8.7538L5.02207 8.85385H5.1282H8.86154H8.96807L8.93215 8.75356L7.05522 3.51317L6.98423 3.31495L6.91392 3.51342L5.05751 8.7538Z" fill="white" stroke="#1E1C1C" stroke-width="0.15"/>
</svg>
