<svg width="13" height="15" viewBox="0 0 13 15" fill="none" xmlns="http://www.w3.org/2000/svg">
<g filter="url(#filter0_ii_30:4130)">
<path d="M9.89476 15H5.96936C4.87396 15 4.04154 14.3023 3.32426 13.3451L0.828858 9.79193C0.353584 9.11519 0.4733 8.00148 1.29846 8.05605V8.05605C1.71114 8.08729 2.09223 8.28759 2.35052 8.60893L3.32999 9.79331C3.40508 9.88406 3.52961 9.91824 3.64099 9.87862C3.75254 9.83899 3.82685 9.73426 3.827 9.61663L3.83263 2.86383C3.8331 2.30846 4.24955 1.85675 4.76111 1.85675C5.2614 1.85675 5.67018 2.28749 5.68911 2.82513C5.68911 3.64808 5.68958 4.5439 5.68974 5.39652C5.69005 7.3249 5.69036 7.59393 5.68974 7.75538C5.68943 7.82903 5.71884 7.89973 5.77124 7.95179C5.82381 8.00369 5.89499 8.03275 5.96914 8.03244H5.97008C6.04408 8.03306 6.1151 8.00431 6.16782 7.95272C6.22038 7.90113 6.25011 7.83074 6.25042 7.7574C6.25105 7.59486 6.25073 7.32676 6.25042 5.39745C6.25042 4.56518 6.25011 3.69127 6.24995 2.88449C6.25042 2.87797 6.25073 2.87191 6.25073 2.86538C6.25073 2.84953 6.25042 2.8343 6.24995 2.81845C6.24995 2.14111 6.24995 1.51551 6.24995 1.00335C6.24964 0.448143 6.66624 0 7.17811 0H7.20658C7.71846 0 8.14319 0.444569 8.14319 1.00024V7.75864C8.14319 7.91232 8.26881 8.0371 8.42353 8.0371C8.57841 8.0371 8.70388 7.91232 8.70388 7.75864V2.0544C8.70388 1.49873 9.11172 1.0467 9.62359 1.0467C10.1384 1.0467 10.5461 1.49873 10.5461 2.0544V7.75864C10.5461 7.91232 10.6717 8.0371 10.8265 8.0371C10.9813 8.0371 11.1068 7.91232 11.1068 7.75864V4.96904C11.1068 4.41321 11.5325 3.97797 12.0445 3.97797H12.0713C12.5819 3.97797 12.9985 4.4185 12.9997 4.97246C13.005 7.25933 12.9305 8.15168 12.927 11.7608C12.9255 13.549 11.5651 15 9.89476 15Z" fill="#4AA0EA"/>
</g>
<defs>
<filter id="filter0_ii_30:4130" x="0.550781" y="-1" width="12.4492" height="18" filterUnits="userSpaceOnUse" color-interpolation-filters="sRGB">
<feFlood flood-opacity="0" result="BackgroundImageFix"/>
<feBlend mode="normal" in="SourceGraphic" in2="BackgroundImageFix" result="shape"/>
<feColorMatrix in="SourceAlpha" type="matrix" values="0 0 0 0 0 0 0 0 0 0 0 0 0 0 0 0 0 0 127 0" result="hardAlpha"/>
<feOffset dy="-2"/>
<feGaussianBlur stdDeviation="0.5"/>
<feComposite in2="hardAlpha" operator="arithmetic" k2="-1" k3="1"/>
<feColorMatrix type="matrix" values="0 0 0 0 0 0 0 0 0 0 0 0 0 0 0 0 0 0 0.05 0"/>
<feBlend mode="normal" in2="shape" result="effect1_innerShadow_30:4130"/>
<feColorMatrix in="SourceAlpha" type="matrix" values="0 0 0 0 0 0 0 0 0 0 0 0 0 0 0 0 0 0 127 0" result="hardAlpha"/>
<feOffset dy="2"/>
<feGaussianBlur stdDeviation="1"/>
<feComposite in2="hardAlpha" operator="arithmetic" k2="-1" k3="1"/>
<feColorMatrix type="matrix" values="0 0 0 0 1 0 0 0 0 1 0 0 0 0 1 0 0 0 0.05 0"/>
<feBlend mode="normal" in2="effect1_innerShadow_30:4130" result="effect2_innerShadow_30:4130"/>
</filter>
</defs>
</svg>
