<svg width="14" height="12" viewBox="0 0 14 12" fill="none" xmlns="http://www.w3.org/2000/svg">
<path d="M11.4201 2.30494C11.1647 2.04944 10.8615 1.84676 10.5277 1.70848C10.194 1.5702 9.8363 1.49902 9.47506 1.49902C9.11382 1.49902 8.75611 1.5702 8.42238 1.70848C8.08865 1.84676 7.78544 2.04944 7.53006 2.30494L7.00006 2.83494L6.47006 2.30494C5.95421 1.78909 5.25458 1.49929 4.52506 1.49929C3.79554 1.49929 3.09591 1.78909 2.58006 2.30494C2.06421 2.82078 1.77441 3.52042 1.77441 4.24994C1.77441 4.97945 2.06421 5.67909 2.58006 6.19494L3.11006 6.72494L7.00006 10.6149L10.8901 6.72494L11.4201 6.19494C11.6756 5.93956 11.8782 5.63634 12.0165 5.30261C12.1548 4.96888 12.226 4.61118 12.226 4.24994C12.226 3.88869 12.1548 3.53099 12.0165 3.19726C11.8782 2.86353 11.6756 2.56031 11.4201 2.30494V2.30494Z" fill="#4AA0EA" stroke="#4AA0EA" stroke-linecap="round" stroke-linejoin="round"/>
</svg>
